# xmcd
#
# Track frame offsets: 
#        150
#        23441
#        42805
#        61760
#        80551
#        99261
#        129425
#        148298
#        167335
#        186536
#        205246
#        223956
#        242747
#
# Disc length: 3538 seconds
#
# Revision: 0
# Processed by: cddbd v1.5.2PL0 Copyright (c) Steve Scherf et al.
# Submitted via: ExactAudioCopy v1.0b3
#
DISCID=b30dd00d
DTITLE=Kasa-Lord - Golden Harmony 2
DYEAR=2010
DGENRE=New Age
TTITLE0=Forest Fantasia
TTITLE1=Dense Woodlands
TTITLE2=Beyond Beauty
TTITLE3=Mirroring
TTITLE4=Flying
TTITLE5=Flooded
TTITLE6=Frolicking in Slow Motion
TTITLE7=Swimming in My Birthday Suit
TTITLE8=Where I Belong
TTITLE9=Part of the Universe
TTITLE10=A Nordic Melody
TTITLE11=A Walk in Awakening
TTITLE12=A Story from an Interior Wall
EXTD=
EXTT0=
EXTT1=
EXTT2=
EXTT3=
EXTT4=
EXTT5=
EXTT6=
EXTT7=
EXTT8=
EXTT9=
EXTT10=
EXTT11=
EXTT12=
PLAYORDER=
